<?xml version="1.0" standalone="no"?>
<!DOCTYPE svg PUBLIC "-//W3C//DTD SVG 20010904//EN"
 "http://www.w3.org/TR/2001/REC-SVG-20010904/DTD/svg10.dtd">
<svg version="1.0" xmlns="http://www.w3.org/2000/svg"
 width="500.000000pt" height="500.000000pt" viewBox="0 0 500.000000 500.000000"
 preserveAspectRatio="xMidYMid meet">
<metadata>
Created by potrace 1.11, written by Peter Selinger 2001-2013
</metadata>
<g transform="translate(0.000000,500.000000) scale(0.100000,-0.100000)"
fill="#000000" stroke="none">
<path d="M1780 4990 c0 -5 4 -10 9 -10 6 0 13 5 16 10 3 6 -1 10 -9 10 -9 0
-16 -4 -16 -10z"/>
<path d="M560 4971 c0 -6 7 -11 15 -11 8 0 15 -4 15 -10 0 -5 -7 -7 -15 -4 -8
4 -15 1 -15 -5 0 -6 6 -11 13 -11 8 0 7 -4 -3 -10 -13 -8 -12 -10 3 -10 9 0
17 -5 17 -11 0 -6 10 -19 22 -28 21 -17 23 -17 55 1 18 11 33 23 33 26 -1 12
-38 52 -48 52 -6 0 -12 5 -14 10 -5 15 -78 25 -78 11z"/>
<path d="M520 4951 c-17 -5 -21 -9 -13 -14 12 -7 53 7 53 18 0 6 -7 5 -40 -4z"/>
<path d="M3606 4924 c-8 -22 -8 -22 15 -35 16 -8 27 -8 45 2 29 15 31 29 3 29
-11 0 -29 4 -39 10 -13 7 -19 6 -24 -6z"/>
<path d="M915 4890 c-57 -8 -126 -45 -119 -63 2 -7 26 -18 52 -24 37 -8 56 -8
87 3 57 20 69 18 94 -16 28 -38 21 -50 -30 -50 -35 0 -40 -4 -53 -32 -13 -33
-13 -33 19 -47 18 -7 35 -22 38 -32 3 -10 13 -19 22 -19 13 0 15 3 6 13 -8 11
-3 16 24 27 30 12 35 19 41 58 4 26 2 54 -5 69 -7 14 -8 30 -3 37 14 18 12 56
-3 56 -8 0 -17 -4 -20 -10 -3 -5 -19 -10 -34 -10 -20 0 -31 7 -39 25 -6 14
-15 24 -19 24 -5 -1 -30 -5 -58 -9z"/>
<path d="M304 4865 c-18 -14 -18 -16 -1 -26 9 -5 17 -20 18 -32 l0 -22 9 23
c6 15 18 22 36 22 28 0 76 -32 85 -58 5 -14 6 -14 12 1 4 10 -3 25 -18 39 -14
13 -25 29 -25 36 0 6 -4 12 -10 12 -5 0 -10 -4 -10 -10 0 -5 -15 -1 -32 10
-40 24 -39 24 -64 5z"/>
<path d="M1530 4789 c0 -5 5 -7 10 -4 6 3 10 8 10 11 0 2 -4 4 -10 4 -5 0 -10
-5 -10 -11z"/>
<path d="M1830 4786 c0 -2 8 -10 18 -17 15 -13 16 -12 3 4 -13 16 -21 21 -21
13z"/>
<path d="M1870 4783 c0 -16 52 -35 63 -24 14 14 7 19 -31 27 -18 4 -32 2 -32
-3z"/>
<path d="M2370 4766 c0 -2 7 -9 15 -16 13 -11 14 -10 9 4 -5 14 -24 23 -24 12z"/>
<path d="M1748 4739 c6 -15 4 -32 -5 -51 -18 -35 -6 -59 15 -32 12 16 14 16 9
2 -5 -13 0 -19 19 -24 43 -11 97 59 65 83 -11 8 -12 12 -3 13 14 0 17 20 2 20
-5 0 -12 -11 -16 -25 -4 -16 -13 -25 -26 -25 -23 0 -50 24 -46 41 2 6 -3 14
-9 16 -10 3 -11 -1 -5 -18z"/>
<path d="M2320 4745 c0 -8 4 -15 10 -15 5 0 7 7 4 15 -4 8 -8 15 -10 15 -2 0
-4 -7 -4 -15z"/>
<path d="M2010 4735 c-24 -13 -24 -14 -4 -15 12 0 27 7 34 15 16 19 3 19 -30
0z"/>
<path d="M753 4713 c-10 -27 -40 -53 -62 -53 -26 0 -51 -10 -51 -21 0 -5 12
-6 28 -3 21 4 31 0 46 -20 15 -21 24 -24 50 -19 45 8 47 13 40 76 -6 47 -10
57 -26 57 -10 0 -21 -8 -25 -17z"/>
<path d="M1915 4720 c-4 -6 -13 -9 -21 -6 -8 3 -11 0 -7 -10 4 -10 13 -14 27
-10 11 3 25 6 29 6 5 0 5 5 2 10 -9 14 8 12 24 -2 11 -11 13 -10 9 2 -5 18
-53 26 -63 10z"/>
<path d="M2070 4720 c0 -5 5 -10 10 -10 6 0 10 5 10 10 0 6 -4 10 -10 10 -5 0
-10 -4 -10 -10z"/>
<path d="M35 4700 c-3 -6 1 -7 9 -4 18 7 21 14 7 14 -6 0 -13 -4 -16 -10z"/>
<path d="M2021 4693 c-1 -8 -14 -13 -30 -13 -17 0 -33 -4 -36 -10 -3 -5 -18
-10 -32 -10 -15 0 -50 -14 -80 -30 -29 -17 -53 -26 -53 -20 0 5 -13 10 -30 10
-25 0 -30 -4 -30 -24 0 -37 21 -48 50 -26 14 11 31 20 38 20 6 0 12 7 12 15 0
20 27 19 38 -1 7 -13 13 -14 30 -5 27 14 29 14 29 -4 0 -8 -5 -12 -11 -9 -6 3
0 -4 14 -15 l25 -21 -24 -20 c-13 -11 -26 -18 -30 -15 -3 3 1 10 9 15 12 7 12
12 3 21 -9 9 -16 9 -28 -1 -11 -9 -19 -10 -27 -2 -6 6 -17 8 -25 5 -7 -3 -13
-2 -12 3 1 5 1 13 0 17 -1 10 -91 -51 -91 -63 0 -16 19 -21 40 -10 16 8 20 8
20 -4 0 -8 12 -51 26 -96 20 -60 24 -84 15 -93 -8 -8 -11 -6 -11 7 0 9 -4 15
-9 12 -5 -3 -12 25 -15 62 -11 100 -13 105 -39 87 -25 -17 -41 -20 -32 -5 3 6
2 10 -4 10 -6 0 -8 7 -4 16 5 14 3 13 -15 -2 -12 -10 -22 -25 -23 -34 0 -10
-2 -11 -6 -2 -3 7 1 19 7 28 7 8 10 17 6 21 -8 8 -5 13 -54 -89 -39 -78 -73
-118 -102 -118 -5 0 -19 9 -30 20 -11 11 -20 19 -21 18 -1 -2 -2 -16 -4 -33
-3 -39 -45 -104 -67 -105 -10 0 -18 -4 -18 -10 0 -5 -16 -12 -36 -16 -25 -5
-32 -10 -25 -17 6 -6 11 -18 10 -26 0 -12 -2 -12 -6 -3 -12 31 -83 36 -83 6 0
-7 6 -11 14 -8 8 3 17 -1 22 -8 4 -7 4 -10 -1 -6 -4 4 -15 -7 -24 -24 -9 -18
-27 -35 -41 -39 -25 -7 -22 -9 27 -13 26 -2 88 -116 64 -116 -6 0 -11 5 -11
11 0 5 -11 27 -25 47 -15 22 -25 30 -25 20 0 -9 5 -20 10 -23 6 -4 20 -25 31
-47 14 -27 23 -37 29 -29 8 15 19 -17 21 -64 1 -21 3 -24 6 -10 9 36 22 39 33
9 9 -24 8 -31 -6 -41 -16 -12 -16 -13 7 -13 62 0 83 21 82 82 0 23 4 26 28 26
16 -1 29 -7 29 -13 0 -7 10 -15 23 -19 34 -9 47 -7 47 7 0 6 13 18 30 25 28
13 37 21 98 90 29 33 30 34 60 18 40 -21 53 -21 24 0 -22 15 -22 17 -6 35 18
20 40 27 29 9 -8 -13 -2 -13 29 2 20 9 23 14 15 25 -9 10 -7 13 10 13 12 0 19
5 16 10 -3 6 2 10 11 10 10 0 15 3 12 6 -4 3 -2 20 3 37 6 22 5 33 -4 39 -8 5
-5 7 8 8 87 2 98 6 141 56 24 27 49 62 55 77 7 16 17 26 24 23 7 -2 21 2 32 9
24 19 59 19 67 0 9 -24 23 -17 30 15 7 36 32 40 66 10 13 -11 28 -20 33 -20 6
0 2 -7 -9 -15 -17 -13 -17 -14 -2 -15 10 0 22 -8 27 -18 7 -14 18 -17 45 -14
20 2 39 8 42 14 3 5 14 -1 25 -13 14 -16 20 -18 23 -8 2 8 10 31 16 52 6 20
16 35 21 31 5 -3 7 -10 4 -15 -4 -5 -1 -9 4 -9 6 0 11 5 11 10 0 6 7 10 16 10
8 0 13 -4 9 -9 -3 -5 -1 -12 5 -16 5 -3 10 -1 10 5 0 6 5 8 10 5 6 -3 16 -3
23 2 6 4 20 9 31 10 14 3 16 0 9 -9 -11 -13 -10 -53 2 -98 5 -19 4 -22 -4 -10
-13 18 -15 1 -2 -19 7 -11 11 -10 20 7 6 11 11 33 12 49 1 33 17 79 18 51 1
-9 6 -18 12 -20 11 -4 13 -20 9 -101 -2 -40 2 -53 24 -76 14 -15 26 -34 26
-43 0 -9 5 -20 11 -24 8 -4 9 3 3 27 -4 19 -7 42 -6 51 0 10 -4 21 -10 24 -8
5 -9 1 -5 -10 5 -12 3 -16 -5 -14 -14 5 -19 148 -6 148 4 0 5 14 1 32 -5 28
-4 31 12 24 17 -6 18 -5 3 11 -22 25 -50 83 -57 116 -3 15 -9 27 -12 25 -8 -4
-39 28 -39 41 0 6 -10 11 -21 11 -19 0 -21 -4 -16 -35 3 -20 1 -37 -5 -41 -12
-8 -30 16 -24 32 2 5 -2 21 -10 35 l-13 24 -1 -27 c0 -15 -7 -34 -16 -42 -8
-9 -12 -16 -7 -16 4 0 1 -5 -7 -11 -11 -8 -7 -9 17 -4 18 4 34 2 38 -4 4 -7
-8 -11 -32 -12 -21 0 -46 -2 -55 -4 -21 -4 -21 31 0 60 11 16 13 16 9 3 -7
-19 1 -23 18 -10 15 11 17 74 3 84 -21 13 -28 9 -28 -12 0 -13 -7 -20 -19 -20
-11 0 -23 -9 -26 -21 -5 -14 -10 -18 -17 -11 -6 6 -6 16 0 29 9 15 7 19 -8 19
-10 0 -16 -4 -14 -8 7 -11 -10 -10 -24 2 -6 6 -10 7 -7 3 3 -3 -2 -15 -12 -25
-9 -11 -11 -18 -5 -18 7 0 12 -5 12 -11 0 -8 -5 -8 -15 1 -8 7 -13 16 -10 20
7 11 -5 40 -16 40 -4 0 -6 -7 -3 -15 4 -8 1 -15 -5 -15 -9 0 -9 -6 0 -22 12
-23 12 -23 -10 -4 -19 17 -21 17 -21 3 0 -19 -15 -23 -25 -7 -9 15 -25 12 -25
-5 0 -8 -4 -15 -10 -15 -5 0 -10 -9 -10 -20 0 -33 -18 -23 -38 23 -15 35 -16
44 -5 55 7 8 11 18 8 23 -10 15 -19 10 -31 -15 -12 -26 -7 -86 7 -86 5 0 9 -5
9 -11 0 -8 -5 -8 -15 1 -8 7 -15 21 -15 31 0 11 -4 19 -10 19 -5 0 -10 12 -10
26 0 14 4 23 10 19 6 -3 10 -3 11 2 6 68 -3 96 -18 56 -9 -22 -40 -53 -47 -45
-3 3 -6 -1 -6 -8 0 -9 -5 -7 -15 6 -17 23 -18 19 -6 -24 6 -21 6 -32 0 -32 -6
0 -8 -4 -4 -10 3 -5 -3 -18 -15 -30 -11 -11 -20 -32 -20 -47 0 -19 3 -24 9
-15 7 11 9 10 14 -3 4 -9 3 -13 -3 -10 -6 3 -10 0 -10 -7 -1 -36 -39 40 -56
111 -18 78 -20 80 -54 90 l-35 9 33 1 c18 1 31 5 27 10 -3 5 -1 12 5 16 15 10
2 25 -23 26 -12 0 -16 3 -9 6 7 3 26 0 42 -6 32 -11 34 -8 20 24 -5 11 -9 14
-9 8z m-31 -122 c0 -4 -7 -8 -15 -8 -16 0 -20 9 -9 20 8 8 24 -1 24 -12z m210
-121 c0 -10 -7 -7 -20 10 -18 23 -20 24 -21 5 -1 -11 -1 -26 0 -33 3 -18 -36
6 -44 28 -5 12 -4 13 6 3 21 -20 28 -15 26 17 -1 16 -5 30 -9 30 -5 0 -8 9 -8
21 0 11 5 17 10 14 6 -3 10 0 10 7 0 7 12 -9 25 -37 14 -27 25 -57 25 -65z
m-380 60 c0 -5 -5 -10 -11 -10 -5 0 -7 5 -4 10 3 6 8 10 11 10 2 0 4 -4 4 -10z
m690 -40 c8 -15 8 -25 0 -38 -11 -16 -11 -16 -6 1 3 10 1 27 -4 38 -6 10 -8
19 -6 19 3 0 10 -9 16 -20z m-498 2 c4 12 48 -100 48 -122 0 -8 -8 -4 -19 9
l-19 22 -4 -22 c-3 -20 -7 -18 -54 24 -52 47 -71 86 -30 64 11 -7 27 -18 35
-26 19 -17 26 0 12 28 -16 28 -14 33 8 21 14 -7 20 -7 23 2z m-249 -131 c9
-12 9 -13 0 -7 -7 4 -13 3 -13 -3 0 -5 5 -13 10 -16 6 -3 10 -11 10 -16 0 -17
-49 25 -50 43 0 9 -7 23 -15 32 -17 17 -20 36 -5 36 6 0 10 8 10 18 0 9 10 -3
21 -27 11 -25 25 -52 32 -60z m147 47 c33 -59 38 -77 14 -57 -25 20 -64 109
-49 109 3 0 18 -24 35 -52z m-43 -65 c6 -24 8 -43 6 -43 -9 0 -33 71 -32 97 0
24 1 25 8 8 5 -11 13 -39 18 -62z m912 25 c0 -28 -2 -30 -9 -13 -12 28 -12 45
0 45 6 0 10 -15 9 -32z m-69 -8 c0 -5 -2 -10 -4 -10 -3 0 -8 5 -11 10 -3 6 -1
10 4 10 6 0 11 -4 11 -10z m-957 -57 c14 -16 14 -19 -1 -33 -14 -13 -15 -12
-9 4 5 12 1 23 -10 32 -10 7 -13 14 -7 14 6 0 18 -8 27 -17z m17 -90 c0 -7
-45 19 -67 40 -42 38 -24 39 22 1 25 -20 45 -38 45 -41z m-293 -29 c-3 -3 -12
-4 -19 -1 -8 3 -5 6 6 6 11 1 17 -2 13 -5z m111 -91 c16 -16 16 -16 -1 -10
-10 4 -23 7 -28 7 -6 0 -7 5 -4 10 9 14 14 13 33 -7z m-248 -51 c0 -7 -4 -10
-10 -7 -5 3 -10 16 -10 28 0 18 2 19 10 7 5 -8 10 -21 10 -28z m105 -34 c5 -5
2 -8 -7 -8 -9 0 -26 9 -39 20 l-24 20 30 -12 c17 -6 34 -15 40 -20z m-39 -33
c17 -16 14 -18 -10 -9 -9 3 -16 10 -16 15 0 13 9 11 26 -6z m-8 -73 c6 -18
-15 -14 -22 4 -4 10 -1 14 6 12 6 -2 14 -10 16 -16z"/>
<path d="M2083 4693 c-20 -7 -15 -20 10 -27 21 -7 21 -8 3 -15 -17 -6 -17 -8
-4 -14 9 -3 24 3 34 14 17 18 17 20 -2 34 -21 16 -23 16 -41 8z"/>
<path d="M2377 4685 c-4 -8 -2 -17 4 -20 5 -4 7 -11 3 -16 -7 -12 21 -41 49
-52 11 -4 17 -2 17 8 0 8 -4 15 -10 15 -5 0 -10 11 -10 23 0 13 -8 31 -18 40
-23 21 -28 21 -35 2z m33 -16 c0 -5 -4 -9 -10 -9 -5 0 -10 7 -10 16 0 8 5 12
10 9 6 -3 10 -10 10 -16z"/>
<path d="M2163 4675 c0 -8 4 -15 9 -15 4 0 8 4 8 9 0 6 -4 12 -8 15 -5 3 -9
-1 -9 -9z"/>
<path d="M2356 4657 c3 -10 9 -15 12 -12 3 3 0 11 -7 18 -10 9 -11 8 -5 -6z"/>
<path d="M2275 4650 c4 -6 11 -8 16 -5 14 9 11 15 -7 15 -8 0 -12 -5 -9 -10z"/>
<path d="M2330 4650 c0 -5 5 -10 11 -10 5 0 7 5 4 10 -3 6 -8 10 -11 10 -2 0
-4 -4 -4 -10z"/>
<path d="M1524 4639 c1 -7 9 -13 18 -15 11 -1 15 3 11 13 -4 11 -8 12 -13 3
-6 -9 -9 -9 -13 -1 -4 8 -5 8 -3 0z"/>
<path d="M1305 4630 c-3 -5 1 -10 10 -10 9 0 13 5 10 10 -3 6 -8 10 -10 10 -2
0 -7 -4 -10 -10z"/>
<path d="M2026 4625 c4 -8 2 -15 -3 -15 -5 0 -7 -16 -5 -35 2 -19 7 -35 11
-35 5 0 14 -18 21 -40 16 -50 24 -44 21 16 -1 27 2 43 8 40 12 -8 -10 67 -24
76 -18 13 -35 9 -29 -7z"/>
<path d="M459 4603 c-9 -10 -26 -33 -38 -50 l-22 -33 25 0 c32 0 75 38 78 70
4 30 -22 38 -43 13z"/>
<path d="M610 4597 c-14 -7 -26 -22 -28 -34 -3 -21 -78 -96 -117 -119 -18 -10
-18 -11 2 -33 l21 -23 23 23 c21 21 21 23 5 29 -32 11 50 64 95 63 29 -2 41 3
52 21 14 20 13 26 -5 54 -11 18 -21 32 -21 32 -1 0 -13 -6 -27 -13z"/>
<path d="M1355 4599 c-4 -6 -5 -12 -2 -15 2 -3 7 2 10 11 7 17 1 20 -8 4z"/>
<path d="M1610 4600 c0 -5 5 -10 11 -10 5 0 7 5 4 10 -3 6 -8 10 -11 10 -2 0
-4 -4 -4 -10z"/>
<path d="M1548 4593 c-10 -2 -18 -8 -18 -13 0 -4 9 -6 20 -3 11 3 20 9 20 14
0 5 -1 8 -2 8 -2 -1 -11 -3 -20 -6z"/>
<path d="M2345 4580 c10 -11 20 -20 23 -20 3 0 -3 9 -13 20 -10 11 -20 20 -23
20 -3 0 3 -9 13 -20z"/>
<path d="M2516 4587 c3 -10 9 -15 12 -12 3 3 0 11 -7 18 -10 9 -11 8 -5 -6z"/>
<path d="M767 4576 c-4 -9 -16 -16 -27 -16 -11 0 -19 -4 -17 -9 3 -16 -34 -67
-56 -77 -11 -5 -23 -15 -25 -22 -3 -11 0 -12 18 -2 12 6 28 9 36 6 7 -3 18 3
24 14 6 11 7 20 3 20 -4 0 6 9 23 19 32 20 47 50 34 71 -5 8 -9 7 -13 -4z"/>
<path d="M1300 4580 c0 -5 5 -10 10 -10 6 0 10 5 10 10 0 6 -4 10 -10 10 -5 0
-10 -4 -10 -10z"/>
<path d="M1709 4580 c-1 -8 0 -21 1 -29 1 -8 -4 -11 -13 -8 -8 3 -14 -1 -14
-9 0 -19 11 -18 31 5 14 15 15 24 7 38 -8 14 -11 15 -12 3z"/>
<path d="M1056 4535 c-4 -12 3 -15 39 -13 49 3 58 12 23 22 -37 10 -56 7 -62
-9z"/>
<path d="M1626 4470 c-10 -17 -15 -34 -12 -37 3 -4 6 -1 6 5 0 6 7 18 16 26 8
9 14 21 12 26 -2 6 -12 -3 -22 -20z"/>
<path d="M2540 4491 c0 -6 4 -13 10 -16 6 -3 7 1 4 9 -7 18 -14 21 -14 7z"/>
<path d="M1546 4466 c-17 -27 -9 -41 14 -25 12 7 12 9 1 9 -11 0 -11 3 -1 15
7 9 11 18 8 21 -3 2 -13 -7 -22 -20z"/>
<path d="M2856 4463 c-3 -4 -1 -12 5 -20 9 -10 8 -13 -1 -13 -9 0 -7 -7 5 -20
25 -27 48 -27 40 1 -8 25 -41 60 -49 52z"/>
<path d="M588 4426 c-15 -8 -30 -11 -34 -8 -4 4 -4 2 -1 -4 4 -7 -2 -14 -13
-17 -23 -6 -27 -27 -6 -27 7 0 25 9 40 21 14 11 30 17 36 14 5 -3 10 -4 10 -1
0 2 3 11 6 20 8 20 -3 20 -38 2z"/>
<path d="M1510 4420 c0 -5 5 -10 11 -10 5 0 7 5 4 10 -3 6 -8 10 -11 10 -2 0
-4 -4 -4 -10z"/>
<path d="M1550 4420 c0 -5 5 -10 10 -10 6 0 10 5 10 10 0 6 -4 10 -10 10 -5 0
-10 -4 -10 -10z"/>
<path d="M976 4390 c-13 -69 45 -118 88 -75 12 12 20 13 35 5 36 -19 34 -10
-5 21 -32 26 -34 30 -14 24 14 -4 34 -14 45 -21 23 -16 49 -19 40 -4 -3 6 -15
10 -26 10 -10 0 -19 4 -19 8 0 11 -61 32 -73 25 -6 -3 -7 -1 -3 5 7 12 1 17
-35 26 -23 5 -27 2 -33 -24z"/>
<path d="M640 4350 c0 -5 5 -10 11 -10 5 0 7 5 4 10 -3 6 -8 10 -11 10 -2 0
-4 -4 -4 -10z"/>
<path d="M1553 4353 c-18 -4 -39 -30 -31 -39 7 -6 68 26 68 36 0 5 -3 9 -7 9
-5 -1 -18 -4 -30 -6z"/>
<path d="M2657 4354 c-12 -13 -8 -55 8 -70 18 -18 19 -11 4 18 -8 15 -8 19 0
14 12 -8 13 0 2 27 -3 10 -10 15 -14 11z"/>
<path d="M470 4340 c-8 -5 -11 -12 -7 -16 4 -4 13 -2 19 4 15 15 7 24 -12 12z"/>
<path d="M688 4343 c-16 -4 -16 -6 -3 -19 20 -20 62 -9 44 12 -6 8 -14 13 -18
13 -3 -1 -14 -3 -23 -6z"/>
<path d="M2561 4324 c0 -11 3 -14 6 -6 3 7 2 16 -1 19 -3 4 -6 -2 -5 -13z"/>
<path d="M2823 4320 c-7 -10 -10 -26 -7 -35 10 -25 19 -17 21 20 2 41 2 41
-14 15z"/>
<path d="M110 4311 c-14 -27 -13 -30 10 -24 11 3 20 14 20 24 0 25 -16 24 -30
0z"/>
<path d="M2616 4314 c-18 -17 -18 -53 -2 -57 10 -2 31 62 23 70 -3 2 -12 -4
-21 -13z"/>
<path d="M1435 4296 c-5 -6 -11 -16 -12 -21 -1 -6 -5 -19 -9 -30 -7 -18 -7
-18 15 2 13 12 21 30 19 41 -2 15 -6 17 -13 8z"/>
<path d="M1067 4279 c7 -7 15 -10 18 -7 3 3 -2 9 -12 12 -14 6 -15 5 -6 -5z"/>
<path d="M1055 4238 c2 -18 4 -35 5 -38 0 -3 5 3 11 13 7 12 6 23 -4 38 -14
19 -15 19 -12 -13z"/>
<path d="M2656 4247 c3 -10 9 -15 12 -12 3 3 0 11 -7 18 -10 9 -11 8 -5 -6z"/>
<path d="M318 4205 c2 -14 -3 -36 -12 -50 -10 -16 -12 -23 -4 -20 29 12 50 95
24 95 -9 0 -12 -8 -8 -25z"/>
<path d="M2810 4218 c0 -7 4 -19 9 -26 7 -11 9 -11 13 0 3 7 -1 19 -8 26 -11
10 -14 10 -14 0z"/>
<path d="M157 4201 c-21 -3 -38 -10 -37 -16 0 -5 3 -10 8 -10 16 1 92 26 92
30 0 5 -7 5 -63 -4z"/>
<path d="M2487 4203 c-11 -10 13 -33 34 -33 20 0 24 8 11 25 -9 12 -36 17 -45
8z"/>
<path d="M3160 4173 c-27 -20 -30 -24 -12 -20 28 7 28 -2 -3 -32 -15 -13 -25
-34 -25 -50 0 -24 -9 -39 -52 -78 -35 -33 -38 -41 -23 -70 8 -15 15 -34 15
-40 0 -7 5 -13 10 -13 13 0 13 12 0 45 -13 35 4 23 20 -14 17 -43 79 -48 136
-12 l41 26 -4 60 c-3 33 -11 80 -19 104 -8 25 -14 62 -14 83 0 46 -18 49 -70
11z m-53 -255 c-3 -8 -6 -5 -6 6 -1 11 2 17 5 13 3 -3 4 -12 1 -19z"/>
<path d="M2851 4176 c-7 -8 -9 -21 -5 -27 5 -9 10 -5 16 11 10 28 5 36 -11 16z"/>
<path d="M720 4141 c0 -5 -10 -12 -22 -15 -22 -7 -22 -7 -3 -15 23 -10 38 -4
29 10 -3 6 4 8 18 6 12 -2 17 -2 11 0 -7 3 -13 9 -13 14 0 5 -4 9 -10 9 -5 0
-10 -4 -10 -9z"/>
<path d="M522 4119 c-15 -23 -39 -25 -62 -4 -11 10 -27 13 -48 9 -37 -7 -41
-19 -11 -27 11 -3 23 -14 25 -24 6 -23 88 -45 104 -29 7 7 15 4 24 -10 14 -18
14 -17 10 15 -8 46 27 84 63 70 14 -5 28 -7 31 -5 6 6 -43 26 -63 26 -8 0 -17
-5 -20 -10 -4 -6 -13 -7 -24 -1 -13 7 -20 5 -29 -10z"/>
<path d="M238 4118 c-3 -7 -21 -12 -43 -11 -40 1 -38 2 -137 -88 -15 -14 -28
-31 -28 -38 0 -6 -4 -11 -9 -11 -5 0 -5 -17 1 -39 9 -37 12 -39 41 -36 21 3
42 -5 73 -26 42 -28 64 -31 27 -3 -29 21 -4 50 38 46 19 -2 57 -5 85 -6 28 -2
60 -9 72 -15 33 -18 34 -13 7 26 -33 49 -33 81 1 93 25 10 25 30 -1 30 -7 0
-15 7 -18 14 -5 12 -13 13 -39 5 -27 -7 -35 -6 -45 8 -16 21 -16 36 -1 51 9 9
8 12 -4 12 -9 0 -18 -5 -20 -12z"/>
<path d="M3450 4120 c-8 -5 -11 -12 -8 -16 4 -3 14 1 23 10 18 17 9 21 -15 6z"/>
<path d="M800 4091 c0 -4 11 -6 25 -3 14 2 25 6 25 8 0 2 -11 4 -25 4 -14 0
-25 -4 -25 -9z"/>
<path d="M725 4020 c3 -5 8 -10 11 -10 2 0 4 5 4 10 0 6 -5 10 -11 10 -5 0 -7
-4 -4 -10z"/>
<path d="M736 3965 c-4 -20 -11 -33 -17 -30 -5 4 -9 -1 -9 -9 0 -12 5 -13 23
-7 12 5 22 12 22 17 0 5 4 14 8 21 8 13 -1 43 -13 43 -4 0 -11 -16 -14 -35z"/>
<path d="M770 3941 c0 -5 5 -13 10 -16 6 -3 10 -2 10 4 0 5 -4 13 -10 16 -5 3
-10 2 -10 -4z"/>
<path d="M555 3920 c-3 -6 1 -7 9 -4 18 7 21 14 7 14 -6 0 -13 -4 -16 -10z"/>
<path d="M2920 3910 c0 -5 5 -10 10 -10 6 0 10 5 10 10 0 6 -4 10 -10 10 -5 0
-10 -4 -10 -10z"/>
<path d="M1048 3893 c6 -2 18 -2 25 0 6 3 1 5 -13 5 -14 0 -19 -2 -12 -5z"/>
<path d="M1065 3870 c3 -5 10 -10 16 -10 5 0 9 5 9 10 0 6 -7 10 -16 10 -8 0
-12 -4 -9 -10z"/>
<path d="M1310 3860 c0 -11 4 -20 9 -20 5 0 7 9 4 20 -3 11 -7 20 -9 20 -2 0
-4 -9 -4 -20z"/>
<path d="M2890 3844 c0 -8 5 -12 10 -9 6 4 8 11 5 16 -9 14 -15 11 -15 -7z"/>
<path d="M3630 3801 c0 -11 5 -23 10 -26 6 -3 10 -22 10 -41 0 -40 19 -52 54
-36 45 20 102 -30 78 -68 -7 -11 -11 -20 -10 -20 11 0 165 34 217 47 44 12 65
22 69 35 2 10 9 18 16 18 6 0 -6 16 -26 35 -21 18 -38 39 -38 46 0 8 -12 9
-37 4 -57 -10 -96 -10 -120 -2 -18 7 -25 3 -38 -22 -8 -17 -26 -33 -39 -37
-31 -7 -79 18 -106 56 -25 34 -40 39 -40 11z"/>
<path d="M2034 3790 c-18 -4 -45 -16 -60 -28 -37 -26 -77 -72 -63 -72 6 0 9
-7 5 -15 -3 -8 0 -14 7 -12 8 1 13 -16 15 -50 3 -50 24 -78 36 -48 3 8 15 19
27 26 19 10 21 9 16 -5 -8 -20 2 -20 39 -2 15 8 31 13 36 10 4 -3 8 2 8 11 0
12 -5 15 -16 11 -27 -10 -12 27 18 43 25 14 28 14 45 -8 l18 -23 54 22 c30 11
64 20 75 19 53 -4 78 1 73 15 -3 7 -1 18 4 23 7 7 -9 14 -45 21 -69 14 -211 0
-273 -28 -24 -10 -43 -16 -43 -13 0 15 76 75 101 80 40 8 47 23 12 24 -15 0
-35 2 -43 3 -8 2 -29 0 -46 -4z"/>
<path d="M2876 3772 c-3 -3 -6 -22 -6 -42 0 -41 23 -72 34 -45 3 8 15 15 26
15 23 0 27 27 8 52 -14 17 -53 29 -62 20z"/>
<path d="M290 3745 c0 -17 22 -35 43 -35 11 0 35 -10 54 -21 19 -12 37 -19 40
-15 3 3 -2 8 -11 12 -9 3 -16 15 -16 25 0 12 -7 19 -19 19 -10 0 -21 7 -24 15
-7 16 -67 16 -67 0z"/>
<path d="M1555 3605 c-22 -8 -47 -15 -55 -15 -8 0 -23 -11 -32 -24 l-18 -24
80 4 c62 3 78 1 74 -9 -2 -7 -20 -19 -38 -25 -49 -18 -86 -59 -86 -95 0 -27 2
-29 28 -22 15 3 42 9 60 12 32 5 32 6 13 20 -25 17 -26 26 -5 48 15 15 18 14
36 -15 16 -28 23 -31 46 -25 15 4 43 11 62 14 34 6 35 8 38 56 3 44 -1 54 -25
77 -36 34 -119 45 -178 23z"/>
<path d="M2247 3605 c-15 -6 -24 -15 -20 -20 5 -4 0 -5 -9 -2 -10 3 -20 2 -24
-4 -3 -6 -12 -8 -20 -5 -8 3 -14 2 -14 -2 0 -4 -23 -7 -51 -7 -36 0 -55 -5
-66 -17 -15 -17 -14 -18 21 -18 62 0 168 31 194 57 29 29 26 34 -11 18z"/>
<path d="M657 3593 c-3 -5 -3 -23 2 -39 6 -25 8 -26 13 -9 6 24 -6 63 -15 48z"/>
<path d="M1190 3581 c0 -6 5 -13 12 -17 6 -4 8 -3 4 4 -3 5 0 13 6 15 8 3 6 6
-4 6 -10 1 -18 -3 -18 -8z"/>
<path d="M0 3554 c0 -25 33 -63 55 -64 20 0 8 52 -16 71 -32 25 -39 24 -39 -7z"/>
<path d="M4120 3562 c-19 -8 -51 -18 -70 -23 -167 -38 -210 -52 -210 -69 0 -5
5 -10 10 -10 6 0 19 -9 31 -21 l20 -20 140 48 c121 41 139 50 139 69 0 34 -20
43 -60 26z"/>
<path d="M3228 3533 c7 -3 16 -2 19 1 4 3 -2 6 -13 5 -11 0 -14 -3 -6 -6z"/>
<path d="M3025 3450 c-4 -6 -22 -17 -42 -25 -33 -14 -35 -17 -21 -33 34 -38
39 -59 26 -102 -7 -22 -16 -40 -20 -40 -10 0 -10 -44 -1 -54 4 -4 8 -26 9 -49
3 -80 4 -88 14 -82 6 4 8 11 5 16 -4 5 -2 9 4 9 5 0 18 3 28 6 15 5 15 4 3 -5
-17 -12 -10 -15 53 -26 20 -3 37 -9 37 -14 0 -4 15 -8 33 -8 17 -1 43 -3 57
-5 31 -4 40 7 40 51 l0 34 -23 -21 c-13 -12 -33 -22 -44 -22 -20 0 -76 60
-103 109 -20 39 -15 98 12 126 12 13 23 32 23 42 0 21 -48 65 -67 62 -36 -4
-41 1 -23 21 10 11 15 20 12 20 -3 0 -9 -5 -12 -10z m56 -123 c-13 -13 -26 -3
-16 12 3 6 11 8 17 5 6 -4 6 -10 -1 -17z"/>
<path d="M1680 3424 c-26 -10 -29 -13 -11 -11 42 4 32 -17 -21 -43 -45 -22
-48 -25 -25 -28 48 -6 148 63 125 86 -15 15 -24 14 -68 -4z"/>
<path d="M1068 3403 c7 -3 16 -2 19 1 4 3 -2 6 -13 5 -11 0 -14 -3 -6 -6z"/>
<path d="M1311 3396 c-7 -8 -27 -18 -44 -22 -41 -9 -147 -55 -147 -63 0 -4
-22 -18 -50 -32 -27 -13 -50 -30 -50 -37 0 -20 28 -25 46 -8 9 10 24 14 35 11
13 -4 17 -2 14 7 -3 8 12 20 38 31 73 33 91 41 140 71 26 15 47 34 47 42 0 18
-14 18 -29 0z"/>
<path d="M3559 3342 c-24 -2 -46 -13 -65 -33 -37 -39 -24 -50 46 -37 64 13 79
22 77 48 -1 23 -10 26 -58 22z"/>
<path d="M3995 3312 c-38 -14 -72 -28 -75 -32 -12 -18 -89 -48 -108 -44 -14 4
-22 0 -27 -15 -10 -34 -51 -38 -79 -8 -13 14 -21 28 -18 31 3 3 -2 6 -12 6
-12 0 -17 7 -14 23 3 27 -13 35 -27 12 -8 -12 -4 -20 15 -35 23 -18 25 -24 23
-101 l-2 -81 35 33 c20 19 47 44 60 57 13 12 56 39 95 59 69 35 72 36 99 19
28 -16 29 -15 58 14 17 16 38 31 46 31 32 3 36 4 36 12 0 4 0 16 0 27 0 26
-17 25 -105 -8z"/>
<path d="M1292 3308 c-7 -7 -12 -19 -12 -27 1 -17 30 -61 30 -45 0 5 5 2 10
-6 15 -23 12 -96 -4 -109 -14 -12 -47 -7 -98 14 -14 6 -18 2 -18 -18 0 -25 16
-37 52 -37 11 0 22 -8 25 -20 3 -11 9 -20 13 -20 5 0 12 -9 15 -20 3 -11 13
-20 21 -20 8 0 14 -9 14 -20 0 -11 5 -20 10 -20 6 0 10 -9 10 -19 0 -11 5 -21
12 -23 6 -2 9 -12 5 -21 -3 -9 -13 -14 -21 -11 -8 3 -17 1 -20 -4 -3 -5 -17
-7 -31 -4 -14 2 -25 0 -25 -6 0 -6 -18 -10 -40 -10 -34 0 -40 4 -40 22 -1 20
-2 20 -14 4 -7 -10 -19 -18 -26 -18 -7 0 -19 8 -26 18 -13 16 -13 16 -14 -3 0
-22 -69 -72 -79 -58 -3 5 -13 12 -22 15 -18 7 -39 71 -39 121 0 27 4 35 14 31
8 -3 16 3 19 16 4 17 10 20 34 14 15 -4 39 -20 52 -36 16 -19 33 -28 52 -28
16 0 29 -4 29 -10 0 -5 5 -10 10 -10 6 0 10 7 10 16 0 10 5 14 15 10 19 -7 33
23 16 33 -6 4 -9 15 -5 24 5 13 2 16 -12 10 -11 -4 -15 -3 -10 5 11 19 -11 23
-59 10 -33 -9 -51 -9 -63 -2 -16 11 -80 0 -92 -15 -22 -28 -144 -40 -174 -18
-17 13 -16 16 18 53 38 41 43 70 14 88 -13 8 -23 8 -35 0 -13 -8 -25 -8 -40
-1 -27 12 -30 32 -7 41 11 4 15 14 12 31 -4 17 -1 25 8 25 23 0 16 16 -13 29
-16 8 -36 17 -45 22 -20 10 -68 -5 -68 -21 0 -6 -12 -28 -27 -47 -26 -34 -28
-44 -28 -129 -1 -101 -8 -119 -56 -129 -32 -7 -36 -17 -15 -37 16 -17 89 -12
83 5 -4 12 45 57 62 57 19 0 23 -44 7 -75 -9 -17 -16 -24 -16 -16 0 10 -3 11
-14 2 -11 -9 -15 -9 -19 1 -4 9 -6 9 -6 -2 -2 -47 38 -54 77 -12 58 62 132 31
132 -55 0 -36 5 -51 26 -70 21 -20 25 -31 22 -61 -3 -20 -8 -45 -12 -54 -7
-15 -3 -18 25 -18 19 0 59 -13 89 -28 52 -26 55 -30 64 -75 9 -49 20 -56 57
-37 27 15 24 36 -13 69 -25 22 -32 36 -31 62 4 113 100 157 139 64 8 -19 19
-35 24 -35 23 0 50 -41 50 -77 1 -49 24 -82 48 -67 9 6 19 21 22 34 4 15 19
28 47 39 23 9 45 19 49 24 11 11 12 100 2 114 -10 12 -5 123 8 181 4 21 3 32
-5 32 -13 0 -14 43 -2 87 6 21 6 35 0 39 -6 4 -6 11 1 19 13 16 6 21 -44 30
-25 5 -40 14 -43 26 -3 11 -9 19 -14 19 -5 0 -8 23 -7 50 1 28 6 50 10 50 12
0 9 35 -4 48 -7 7 -19 12 -28 12 -9 0 -21 -5 -28 -12z m-567 -28 c3 -6 -1 -7
-9 -4 -9 4 -18 -1 -22 -10 -3 -9 -10 -16 -15 -16 -6 0 -5 9 1 20 11 21 35 27
45 10z"/>
<path d="M192 3272 c-17 -19 -30 -37 -28 -39 7 -7 76 9 76 18 0 5 12 15 26 22
20 10 23 16 14 22 -30 18 -56 11 -88 -23z"/>
<path d="M4430 3235 c-7 -9 -10 -18 -7 -22 8 -7 37 15 37 28 0 14 -16 11 -30
-6z"/>
<path d="M1201 3224 c0 -11 3 -14 6 -6 3 7 2 16 -1 19 -3 4 -6 -2 -5 -13z"/>
<path d="M2082 3195 c-12 -20 -28 -35 -35 -34 -7 1 -20 -1 -30 -6 -9 -4 -28
-5 -42 -3 -15 3 -22 1 -18 -5 4 -6 -5 -7 -23 -3 -20 4 -24 4 -15 -3 12 -8 12
-12 -3 -26 -12 -12 -14 -21 -6 -30 8 -9 7 -14 -4 -18 -8 -3 -17 -3 -20 1 -4 3
-15 6 -26 7 -14 1 -26 -12 -44 -49 -29 -62 -61 -97 -80 -90 -11 4 -16 -6 -21
-39 -10 -63 3 -123 31 -154 27 -29 32 -70 9 -70 -8 0 -12 4 -10 8 3 4 -2 9 -9
12 -10 4 -14 -1 -13 -14 1 -10 4 -19 8 -19 4 0 7 -12 7 -27 0 -15 4 -29 10
-31 6 -2 9 -9 6 -17 -3 -7 0 -16 5 -20 6 -3 9 -10 7 -14 -3 -4 5 -7 17 -7 15
1 21 -4 19 -16 -1 -9 6 -19 18 -23 23 -7 26 -20 8 -29 -7 -3 -1 -4 15 -2 27 3
28 2 32 -44 0 -8 6 -24 13 -35 10 -17 11 -16 6 13 -5 22 -3 32 6 32 7 0 10 -7
7 -14 -4 -10 -1 -13 9 -9 7 3 14 3 14 1 0 -3 -22 -44 -49 -93 l-50 -88 -73
-25 c-40 -13 -78 -28 -84 -33 -6 -5 -40 -19 -75 -30 -93 -30 -226 -97 -268
-134 -58 -51 -153 -95 -206 -95 -29 0 -35 4 -35 21 0 20 -3 19 -35 -10 -40
-35 -41 -35 -73 -17 -21 11 -22 14 -8 25 30 25 16 31 -23 12 -92 -47 -129
-103 -187 -278 -24 -73 -40 -147 -49 -228 -8 -66 -21 -160 -30 -210 -8 -49
-20 -205 -25 -345 -6 -167 -15 -279 -25 -325 -9 -38 -14 -90 -12 -115 3 -25
-2 -74 -13 -115 -10 -38 -21 -110 -25 -160 -4 -56 -14 -104 -26 -127 -10 -21
-19 -40 -19 -43 0 -3 259 -5 576 -5 543 0 575 1 570 18 -62 213 -94 428 -112
742 -10 185 16 359 93 633 23 83 39 124 45 115 4 -8 5 0 2 19 -5 24 -2 34 9
39 9 3 18 23 22 45 4 22 15 45 27 53 11 8 31 32 44 53 13 21 24 32 24 25 0 -7
5 -10 10 -7 6 4 8 10 5 15 -3 4 2 10 10 14 10 3 22 -8 37 -34 14 -25 30 -40
42 -40 30 0 196 49 254 76 29 13 62 24 73 24 15 0 19 5 15 18 -10 32 50 79
110 85 64 7 96 -4 272 -92 216 -109 283 -115 296 -27 18 121 18 224 1 277 -16
49 -94 219 -101 219 -18 0 -187 -66 -231 -90 -155 -86 -208 -110 -253 -110
-78 0 -84 1 -140 25 -96 41 -153 63 -207 78 -46 14 -53 14 -53 1 0 -8 -10 -14
-24 -14 -29 0 -46 20 -19 21 10 0 -4 9 -32 20 -44 17 -46 19 -15 14 19 -2 46
-7 59 -11 23 -7 23 -7 21 77 -2 46 -2 89 -1 94 1 13 59 11 94 -3 16 -7 33 -12
38 -12 5 0 9 -4 9 -8 0 -5 6 -9 13 -9 7 0 25 -3 40 -7 20 -5 27 -3 27 9 0 8 7
15 16 15 8 0 12 -4 9 -10 -8 -12 8 -13 21 -1 13 13 84 21 84 10 0 -5 -5 -9
-12 -9 -9 0 -9 -3 0 -12 8 -8 15 -8 27 2 13 11 13 15 3 22 -8 5 -4 7 12 4 14
-2 24 -9 22 -16 -4 -19 8 -48 23 -54 9 -3 12 0 8 10 -5 14 -3 14 14 3 20 -12
20 -13 -9 -41 -16 -15 -33 -28 -38 -28 -20 0 -9 -19 12 -22 22 -3 68 30 68 48
0 5 9 16 20 24 11 8 20 23 20 33 0 10 9 21 20 24 11 3 20 10 20 15 0 5 5 6 10
3 12 -7 42 13 36 24 -2 3 2 15 10 26 13 17 14 17 14 1 0 -22 20 -16 34 9 6 11
19 26 29 33 9 7 17 19 17 27 0 13 28 40 80 78 23 16 23 17 3 12 -12 -3 -24 -1
-28 5 -3 5 -2 10 4 10 6 0 13 11 17 25 3 14 10 25 15 25 5 0 9 11 9 25 0 14
-5 25 -11 25 -5 0 -8 -4 -4 -9 3 -5 1 -12 -5 -16 -6 -3 -13 0 -16 9 -3 8 -12
12 -20 9 -9 -3 -14 2 -14 15 0 15 5 18 25 14 19 -3 25 0 25 13 0 9 14 35 31
56 17 21 28 43 24 49 -3 5 -3 15 1 21 4 8 9 7 15 -2 7 -11 9 -9 9 6 0 11 10
38 22 60 30 55 32 157 3 180 -17 14 -17 16 -2 11 14 -5 16 -1 11 22 -17 66
-21 69 -34 25 -8 -24 -19 -43 -27 -43 -10 0 -12 -6 -8 -21 5 -15 2 -22 -14
-26 -12 -3 -21 -12 -21 -20 0 -9 6 -13 15 -9 8 3 15 1 15 -4 0 -6 -7 -10 -16
-10 -12 0 -15 -6 -10 -25 5 -18 2 -25 -9 -25 -8 0 -15 -9 -15 -20 0 -13 -9
-21 -27 -25 -16 -3 -43 -10 -60 -14 -20 -6 -33 -5 -33 0 0 5 9 9 20 9 27 0 25
16 -2 24 -36 9 -48 7 -48 -9 0 -11 -7 -13 -29 -9 -23 5 -30 2 -35 -14 -4 -11
-6 -24 -5 -28 3 -21 -2 -26 -16 -14 -12 10 -15 10 -15 0 0 -9 -7 -7 -20 5 -13
11 -18 25 -14 37 3 10 0 18 -6 18 -6 0 -10 11 -8 23 1 13 -5 32 -15 41 -9 10
-17 22 -17 27 0 17 -26 38 -56 45 -16 4 -34 11 -41 16 -7 6 -13 4 -16 -4 -3
-10 -8 -11 -26 0 -26 15 -42 15 -38 0 1 -7 -8 -14 -20 -16 -13 -2 -23 -7 -23
-12 0 -5 -7 -7 -15 -4 -10 4 -15 0 -16 -12 0 -17 -2 -16 -11 3 -9 18 -15 20
-34 13 -20 -8 -24 -6 -24 9 0 10 -11 23 -25 29 -32 15 -31 20 5 61 17 18 30
44 30 57 0 13 -1 24 -2 24 -2 0 -13 -16 -26 -35z m128 -215 c0 -11 -23 -18
-98 -30 -37 -6 -85 -19 -107 -30 -29 -14 -49 -17 -75 -11 l-35 7 27 18 c20 13
37 16 63 12 22 -4 43 -2 57 6 31 18 140 46 156 40 6 -2 12 -8 12 -12z m140
-31 c0 -5 7 -9 15 -9 8 0 14 -3 13 -7 -1 -5 4 -21 10 -36 7 -16 12 -31 12 -35
0 -4 11 -16 25 -26 14 -10 25 -23 25 -28 0 -13 -26 -38 -40 -38 -6 0 -20 -5
-31 -11 -17 -8 -18 -13 -8 -25 18 -22 -5 -43 -30 -27 -15 9 -22 6 -41 -17 -13
-16 -27 -27 -32 -24 -4 3 -8 0 -8 -5 0 -6 -9 -11 -20 -11 -11 0 -23 -7 -26
-15 -3 -8 -14 -17 -25 -20 -11 -4 -17 -11 -14 -16 4 -5 1 -9 -4 -9 -6 0 -12
12 -12 28 -1 17 -3 20 -6 9 -2 -9 -9 -14 -14 -11 -6 3 -9 -2 -7 -12 2 -15 -3
-19 -24 -19 -16 0 -28 4 -27 9 0 5 -5 12 -12 16 -12 8 -50 -29 -62 -60 -4 -12
-6 -11 -6 3 -1 11 -9 17 -25 17 -16 0 -27 7 -31 20 -4 11 -11 18 -16 15 -5 -4
-9 -1 -9 4 0 6 -7 11 -14 11 -19 0 -54 34 -90 87 -25 37 -27 47 -19 80 6 28
14 38 28 38 11 1 40 6 65 12 25 7 106 26 180 43 74 18 156 42 183 53 50 23 97
31 97 16z m-476 -35 c22 -8 20 -24 -2 -24 -10 0 -23 -5 -29 -11 -6 -6 -17 -9
-24 -7 -9 3 -6 11 9 26 25 25 24 24 46 16z m916 -104 c0 -5 -4 -10 -10 -10 -5
0 -10 5 -10 10 0 6 5 10 10 10 6 0 10 -4 10 -10z m-80 -174 c0 -3 -4 -8 -10
-11 -5 -3 -10 -1 -10 4 0 6 5 11 10 11 6 0 10 -2 10 -4z m-616 -85 c-2 -2 -10
2 -18 8 -8 7 -21 9 -28 5 -9 -6 -9 -3 1 9 13 17 15 16 31 0 10 -10 16 -20 14
-22z m386 -175 c0 -2 -7 -6 -15 -10 -8 -3 -15 -1 -15 4 0 6 7 10 15 10 8 0 15
-2 15 -4z m-60 -21 c0 -1 -6 -8 -14 -15 -12 -9 -15 -8 -13 8 0 12 6 18 14 15
7 -3 13 -6 13 -8z m30 -35 c8 -5 11 -10 5 -10 -5 0 -17 5 -25 10 -8 5 -10 10
-5 10 6 0 17 -5 25 -10z m-591 -126 c2 -2 2 -6 0 -9 -8 -7 -49 7 -49 17 0 8
38 2 49 -8z m-63 -60 c-8 -7 -20 -30 -26 -50 -7 -19 -15 -33 -18 -30 -8 9 40
106 50 100 4 -3 2 -12 -6 -20z m-64 -146 c-7 -7 -12 -8 -12 -2 0 6 3 14 7 17
3 4 9 5 12 2 2 -3 -1 -11 -7 -17z m-31 -75 c-12 -20 -14 -14 -5 12 4 9 9 14
11 11 3 -2 0 -13 -6 -23z"/>
<path d="M2017 2762 c-39 -10 -55 -18 -48 -25 5 -5 7 -16 4 -23 -4 -10 4 -14
27 -14 25 0 31 -3 26 -16 -3 -8 -2 -12 3 -9 5 3 12 -3 14 -12 3 -10 5 -3 6 15
1 21 5 31 12 27 6 -4 8 -14 4 -23 -3 -9 -3 -13 1 -9 4 4 13 2 20 -4 9 -7 14
-5 19 9 3 11 4 26 3 33 -2 8 4 14 12 14 21 1 40 14 40 28 0 9 -13 11 -41 9
-29 -3 -40 -1 -35 7 8 13 9 13 -67 -7z"/>
<path d="M570 3209 c0 -5 5 -7 10 -4 6 3 10 8 10 11 0 2 -4 4 -10 4 -5 0 -10
-5 -10 -11z"/>
<path d="M1290 3205 c0 -8 5 -15 10 -15 6 0 10 7 10 15 0 8 -4 15 -10 15 -5 0
-10 -7 -10 -15z"/>
<path d="M1120 3199 c0 -5 5 -7 10 -4 6 3 10 8 10 11 0 2 -4 4 -10 4 -5 0 -10
-5 -10 -11z"/>
<path d="M4304 3128 c-21 -9 -49 -56 -41 -65 10 -9 57 21 57 37 0 9 5 21 12
28 14 14 1 15 -28 0z"/>
<path d="M185 3080 c-36 -14 -46 -36 -43 -92 3 -50 4 -53 28 -49 24 3 70 47
70 67 0 15 43 54 61 54 8 0 21 5 29 10 10 7 -2 9 -40 8 -30 -2 -62 0 -70 4 -8
4 -24 3 -35 -2z"/>
<path d="M1488 3083 c-27 -7 -22 -30 7 -35 17 -4 25 -1 25 8 0 8 -5 14 -11 14
-5 0 -7 5 -4 10 3 6 5 9 3 9 -2 -1 -11 -3 -20 -6z"/>
<path d="M3951 3034 c-31 -22 -63 -49 -71 -59 -14 -17 -13 -18 14 -11 25 6 28
5 17 -7 -7 -10 -8 -17 -2 -21 5 -4 12 -2 16 4 4 6 12 7 18 3 7 -5 21 -8 32 -9
78 -3 83 -4 89 -26 4 -17 8 -20 14 -10 12 17 44 4 40 -17 -2 -10 -11 -15 -25
-13 -16 2 -22 -3 -25 -28 -4 -26 -1 -33 19 -41 34 -13 33 -13 33 25 0 34 0 35
32 25 18 -5 45 -9 60 -9 19 0 28 -5 28 -16 0 -8 5 -12 10 -9 6 3 10 -1 10 -9
0 -32 28 -15 33 20 5 28 1 43 -13 61 -26 33 -53 118 -45 143 10 32 -25 25 -55
-12 -24 -28 -30 -31 -51 -22 -14 6 -41 7 -64 3 -39 -7 -105 7 -105 22 0 4 20
9 45 11 25 2 45 0 45 -4 0 -5 5 -8 10 -8 7 0 6 8 -2 23 -7 12 -11 25 -10 29 5
19 -46 -1 -97 -38z m39 -43 c0 -13 -29 -35 -37 -28 -7 8 15 37 28 37 5 0 9 -4
9 -9z m220 -86 c0 -8 -4 -15 -10 -15 -5 0 -10 7 -10 15 0 8 5 15 10 15 6 0 10
-7 10 -15z"/>
<path d="M1798 3063 c7 -3 16 -2 19 1 4 3 -2 6 -13 5 -11 0 -14 -3 -6 -6z"/>
<path d="M1550 2937 c0 -10 -4 -15 -10 -12 -5 3 -10 -3 -10 -15 0 -11 7 -23
15 -27 14 -5 14 -8 -2 -26 -18 -19 -17 -20 3 -9 20 11 21 9 16 -41 -2 -29 -8
-56 -13 -61 -5 -6 -2 -17 8 -28 21 -23 36 -23 28 1 -4 13 0 20 13 23 21 6 40
60 23 66 -6 2 -11 12 -11 22 0 29 -11 50 -27 50 -9 0 -12 6 -9 18 4 10 -1 27
-9 38 -13 18 -14 18 -15 1z"/>
<path d="M3016 2908 c2 -59 4 -68 12 -68 8 0 8 16 3 88 -2 28 -16 9 -15 -20z"/>
<path d="M360 2921 c0 -11 39 -26 47 -17 8 8 3 12 -24 20 -13 4 -23 3 -23 -3z"/>
<path d="M4720 2897 c-19 -12 -50 -31 -69 -42 -18 -11 -49 -30 -68 -42 -18
-13 -39 -23 -44 -23 -13 0 -8 -72 5 -82 6 -3 22 0 37 8 16 8 36 14 45 14 13 0
14 3 4 15 -9 11 -9 15 -1 15 7 0 9 5 6 10 -4 6 -3 9 2 8 4 -2 10 2 12 7 8 21
43 37 67 31 20 -5 24 -12 22 -39 -1 -17 -7 -35 -13 -39 -6 -5 -5 -8 3 -8 9 0
11 -7 7 -20 -4 -11 -2 -20 4 -20 17 0 61 23 61 32 0 4 7 8 15 8 21 0 19 37 -4
66 -11 14 -25 47 -32 74 -7 28 -15 50 -18 49 -3 0 -22 -10 -41 -22z m-110
-127 c0 -5 -4 -10 -10 -10 -5 0 -10 5 -10 10 0 6 5 10 10 10 6 0 10 -4 10 -10z
m-35 -10 c3 -5 1 -10 -4 -10 -6 0 -11 5 -11 10 0 6 2 10 4 10 3 0 8 -4 11 -10z"/>
<path d="M1215 2890 c4 -6 11 -8 16 -5 14 9 11 15 -7 15 -8 0 -12 -5 -9 -10z"/>
<path d="M3188 2878 c-29 -10 -37 -33 -15 -41 9 -4 9 -6 -1 -6 -7 -1 -10 -6
-6 -13 5 -7 2 -9 -7 -6 -8 3 -20 -1 -27 -8 -14 -15 -6 -18 28 -15 11 1 12 0 3
-7 -10 -6 -3 -17 24 -43 20 -19 32 -28 28 -20 -6 10 -4 12 5 6 10 -6 12 -4 6
11 -5 14 -4 16 4 8 8 -8 9 -18 2 -31 -7 -13 -6 -25 4 -43 l14 -25 -1 35 c0 19
4 53 10 75 8 31 7 43 -4 55 -8 9 -18 31 -21 48 -7 35 -7 35 -46 20z"/>
<path d="M3110 2831 c0 -8 -7 -11 -17 -6 -15 5 -16 4 -5 -6 9 -10 15 -10 24
-1 6 6 9 15 5 19 -4 3 -7 1 -7 -6z"/>
<path d="M3745 2800 c-3 -5 -1 -10 4 -10 6 0 11 5 11 10 0 6 -2 10 -4 10 -3 0
-8 -4 -11 -10z"/>
<path d="M3904 2801 c-17 -16 -73 -30 -79 -20 -10 15 -25 10 -19 -6 7 -17 -11
-21 -21 -5 -5 8 -11 8 -20 0 -9 -8 -15 -8 -20 0 -12 19 -26 10 -41 -27 -9 -21
-32 -55 -52 -76 -34 -35 -36 -39 -19 -51 9 -7 17 -18 17 -25 0 -6 9 -16 20
-23 11 -7 20 -16 20 -21 0 -4 -4 -6 -8 -3 -27 16 -52 -57 -29 -86 7 -9 41 -32
74 -52 42 -25 63 -43 65 -59 2 -18 15 -25 63 -39 76 -21 105 -22 105 -4 0 8 6
16 13 19 9 3 9 7 -1 19 -10 13 -10 17 0 21 10 3 9 9 -4 24 -10 10 -23 33 -29
51 -11 33 -5 32 -99 17 -21 -3 -37 2 -55 18 -24 21 -25 24 -13 57 7 19 18 38
24 42 6 4 10 18 7 30 -2 14 5 34 19 51 20 24 27 26 55 18 46 -13 71 -4 78 29
3 16 13 34 20 40 12 10 12 14 -3 30 -25 25 -58 40 -68 31z"/>
<path d="M3126 2723 c29 -56 30 -90 5 -117 -17 -18 -21 -42 -27 -151 l-7 -130
26 30 27 30 -16 -50 c-8 -27 -26 -93 -40 -145 -14 -52 -36 -138 -50 -190 -81
-302 -184 -696 -184 -705 0 -15 129 -9 147 7 8 7 19 23 24 35 11 30 34 39 65
25 28 -13 31 -39 7 -58 -11 -8 -13 -13 -5 -14 6 0 12 -6 12 -14 0 -9 8 -12 25
-8 15 2 25 0 25 -7 0 -6 9 -11 19 -11 11 0 27 -10 35 -22 20 -28 21 -68 2 -68
-17 0 -41 -28 -32 -37 3 -4 16 3 27 16 32 34 95 8 84 -36 -4 -16 -1 -23 10
-23 17 0 20 -16 5 -25 -6 -3 -13 1 -16 10 -5 12 -14 14 -35 10 -18 -4 -29 -3
-29 4 0 6 -12 17 -27 24 -39 16 -42 24 -37 80 l4 49 -28 -7 c-47 -13 -82 -13
-82 1 0 7 -4 15 -9 18 -5 3 -8 -6 -8 -19 0 -20 4 -25 26 -25 33 0 51 -17 51
-46 0 -20 -30 -57 -30 -38 0 5 -5 2 -10 -6 -7 -11 -10 -6 -10 20 0 25 -3 31
-11 23 -6 -6 -18 -9 -25 -6 -16 6 -85 -57 -77 -70 2 -4 11 -3 19 4 22 18 29 2
9 -21 -13 -14 -14 -20 -5 -20 9 0 8 -5 -5 -13 -17 -13 -17 -14 6 -20 19 -6 21
-9 9 -16 -8 -6 -11 -13 -8 -17 4 -3 19 6 33 21 36 36 70 31 70 -10 0 -26 -3
-30 -24 -27 -18 2 -22 -2 -17 -14 3 -8 6 -18 6 -20 0 -2 11 -2 25 2 21 5 25 3
25 -18 0 -13 9 -29 20 -36 17 -10 20 -10 20 4 0 29 25 8 28 -24 4 -36 -22 -46
-31 -12 -6 24 -32 26 -54 5 -14 -14 -17 -13 -34 7 -70 84 -112 114 -144 102
-17 -7 -21 -34 -5 -34 5 0 17 -11 26 -25 15 -23 15 -26 -1 -41 -14 -14 -21
-15 -36 -6 -25 16 -30 15 -23 -3 4 -8 3 -22 0 -31 -5 -13 -9 -14 -22 -4 -8 7
-13 19 -10 26 3 7 -2 18 -10 24 -15 13 -17 9 -15 -26 1 -11 -5 -27 -15 -35
-14 -12 -19 -11 -33 8 -17 20 -18 17 -45 -111 -86 -409 -115 -562 -122 -625
l-7 -71 1207 0 1206 0 0 769 0 769 -24 53 c-13 30 -26 78 -30 108 -7 53 -59
203 -79 229 -24 31 -140 62 -152 41 -4 -5 -14 -9 -23 -9 -10 0 -23 -9 -30 -20
-13 -21 -32 -27 -32 -10 0 6 11 22 25 36 32 32 32 41 -1 19 -34 -22 -99 -12
-129 20 -24 27 -74 48 -165 69 -36 8 -105 25 -155 36 -49 12 -116 23 -149 25
-32 2 -61 6 -64 9 -3 3 -48 6 -100 6 -84 0 -99 3 -126 23 -17 13 -39 27 -50
30 -15 6 -16 10 -5 23 7 9 25 21 39 26 l25 10 -25 10 c-24 9 -59 7 -123 -8
-23 -5 -26 -4 -21 11 6 15 3 16 -17 10 -13 -4 -27 -13 -31 -19 -5 -8 -8 -7 -8
2 0 7 -15 22 -34 33 -21 12 -33 26 -30 34 7 17 -59 61 -106 70 -55 11 -67 22
-86 72 -57 157 -78 198 -128 245 -28 26 -53 48 -57 48 -3 0 4 -21 17 -47z
m151 -1480 c3 -7 -4 -16 -15 -22 -16 -9 -19 -7 -17 12 1 12 3 24 4 25 2 7 25
-5 28 -15z m-159 -185 c-4 -29 -38 -38 -38 -10 0 22 8 32 27 32 9 0 13 -8 11
-22z m106 -14 c7 -18 -21 -57 -35 -49 -4 3 -11 1 -14 -5 -5 -8 -11 -8 -20 0
-11 9 -11 17 -3 35 15 34 62 46 72 19z m-251 -136 c5 -18 -10 -24 -28 -10 -17
12 -14 28 5 28 10 0 21 -8 23 -18z m67 -107 c0 -19 3 -22 9 -12 15 23 31 2 31
-42 0 -23 10 -82 22 -132 11 -49 23 -123 25 -163 3 -71 3 -73 -19 -70 -13 2
-23 -2 -23 -9 0 -6 -3 -15 -7 -19 -7 -7 -12 25 -9 54 1 6 -2 12 -7 12 -5 0 -8
20 -7 45 0 27 -4 50 -12 57 -7 6 -13 24 -13 40 0 16 -4 27 -9 23 -16 -9 -18
29 -3 48 14 15 13 17 -6 17 -15 0 -20 5 -16 15 4 8 -1 17 -10 21 -9 3 -16 11
-16 18 0 6 -9 19 -20 29 -11 9 -20 26 -20 37 0 24 4 25 37 3 15 -10 24 -12 20
-5 -5 8 -2 12 10 13 15 1 16 2 1 6 -19 5 -30 27 -22 47 15 40 64 15 64 -33z
m-120 10 c0 -12 -20 -25 -27 -18 -7 7 6 27 18 27 5 0 9 -4 9 -9z m-100 -21 c0
-5 -4 -10 -10 -10 -5 0 -10 5 -10 10 0 6 5 10 10 10 6 0 10 -4 10 -10z m81
-20 c22 -12 14 -47 -12 -55 -20 -7 -59 10 -59 25 0 34 35 49 71 30z m551 -96
c26 -19 52 -34 60 -32 8 2 49 -28 92 -67 43 -38 86 -70 96 -70 11 0 39 -27 68
-66 l50 -67 -47 -6 c-25 -4 -163 -20 -306 -36 -143 -17 -275 -33 -292 -36 -18
-3 -33 -2 -33 2 0 22 52 152 70 174 11 14 56 73 101 133 44 59 84 107 88 107
4 0 28 -16 53 -36z m-502 1 c0 -8 0 -17 0 -20 0 -14 -15 -4 -22 14 -5 15 -3
21 7 21 8 0 15 -7 15 -15z m177 -311 c-3 -3 -12 -4 -19 -1 -8 3 -5 6 6 6 11 1
17 -2 13 -5z"/>
<path d="M3010 763 c0 -5 5 -15 10 -23 8 -12 10 -11 10 8 0 12 -4 22 -10 22
-5 0 -10 -3 -10 -7z"/>
<path d="M263 2745 c-9 -25 2 -27 22 -5 17 18 17 20 1 20 -9 0 -19 -7 -23 -15z"/>
<path d="M596 2744 c-9 -22 -3 -26 27 -19 17 5 24 12 20 21 -7 19 -39 18 -47
-2z"/>
<path d="M1600 2720 c0 -5 5 -10 10 -10 6 0 10 5 10 10 0 6 -4 10 -10 10 -5 0
-10 -4 -10 -10z"/>
<path d="M3060 2707 c0 -23 11 -47 21 -47 15 0 10 37 -6 50 -12 10 -15 10 -15
-3z"/>
<path d="M1635 2700 c3 -5 11 -10 16 -10 6 0 7 5 4 10 -3 6 -11 10 -16 10 -6
0 -7 -4 -4 -10z"/>
<path d="M488 2680 c-18 -20 -14 -32 8 -23 22 8 16 -15 -7 -27 -17 -10 -21 -8
-26 9 -4 18 -13 21 -52 21 -39 0 -53 -5 -80 -32 -32 -32 -38 -62 -11 -64 35
-2 40 -5 40 -19 0 -11 11 -15 43 -14 23 0 36 3 30 6 -30 12 -1 61 37 63 24 1
61 37 70 70 8 27 6 30 -13 29 -12 0 -29 -9 -39 -19z"/>
<path d="M1600 2680 c-8 -5 -12 -12 -9 -15 4 -3 12 1 19 10 14 17 11 19 -10 5z"/>
<path d="M153 2648 c2 -7 10 -13 17 -13 7 0 15 6 18 13 2 7 -5 12 -18 12 -13
0 -20 -5 -17 -12z"/>
<path d="M4120 2617 c-36 -17 -41 -21 -24 -24 38 -7 82 10 75 28 -5 15 -11 14
-51 -4z"/>
<path d="M1686 2604 c-6 -15 -4 -15 11 -3 10 7 20 15 22 16 2 2 -3 3 -11 3 -9
0 -19 -7 -22 -16z"/>
<path d="M195 2600 c3 -5 8 -10 11 -10 2 0 4 5 4 10 0 6 -5 10 -11 10 -5 0 -7
-4 -4 -10z"/>
<path d="M3920 2590 c0 -5 5 -10 11 -10 5 0 7 5 4 10 -3 6 -8 10 -11 10 -2 0
-4 -4 -4 -10z"/>
<path d="M1708 2568 c5 -5 16 -8 23 -6 8 3 3 7 -10 11 -17 4 -21 3 -13 -5z"/>
<path d="M1 2415 c1 -107 4 -147 9 -120 4 22 6 42 4 44 -2 3 13 14 33 26 38
21 38 22 35 75 -3 48 -8 60 -43 95 l-39 40 1 -160z"/>
<path d="M3395 2513 c-18 -14 -18 -15 -2 -9 10 3 25 6 33 6 8 0 14 5 14 10 0
15 -22 12 -45 -7z"/>
<path d="M1790 2490 c-1 -8 -2 -20 -1 -26 1 -7 -5 -14 -13 -17 -11 -4 -13 -1
-9 11 4 12 1 11 -10 -4 -9 -12 -16 -30 -16 -40 0 -10 -5 -43 -11 -73 -9 -43
-9 -56 2 -63 8 -5 3 -6 -14 -2 -18 4 -28 2 -28 -5 0 -6 10 -11 22 -11 21 0 21
0 2 -15 -31 -24 1 -17 70 14 35 16 69 38 75 49 16 30 13 39 -5 16 -14 -18 -15
-18 -4 4 6 12 15 22 20 22 16 0 12 46 -5 60 -12 10 -15 9 -15 -4 0 -10 4 -14
10 -11 6 4 7 -1 3 -12 -6 -15 -8 -13 -18 10 -6 15 -20 33 -30 42 -15 11 -16
14 -5 15 10 0 11 3 4 8 -7 4 -14 16 -17 27 -3 13 -5 15 -7 5z"/>
<path d="M738 2429 c-49 -36 -35 -89 22 -89 46 0 78 -11 105 -37 11 -10 33
-26 48 -36 23 -15 28 -24 23 -43 -5 -18 -2 -24 9 -24 9 0 14 -4 10 -9 -3 -5 8
-3 25 6 20 9 43 13 64 9 18 -3 35 -4 37 -1 3 2 3 24 0 47 -5 34 -10 43 -26 43
-12 0 -21 8 -23 20 -2 11 -8 25 -13 31 -7 8 0 16 20 25 32 14 24 29 -16 29
-12 0 -27 8 -32 18 -6 9 -11 12 -11 6 0 -6 -20 -10 -47 -10 -33 1 -47 5 -45
14 1 8 -12 12 -40 12 -24 0 -52 2 -63 5 -11 3 -32 -4 -47 -16z"/>
<path d="M345 2380 c-3 -5 1 -10 9 -10 8 0 18 5 21 10 3 6 -1 10 -9 10 -8 0
-18 -4 -21 -10z"/>
<path d="M1146 2371 c-22 -24 -21 -28 16 -36 46 -11 69 -37 75 -87 8 -70 13
-77 29 -39 19 45 18 71 -3 72 -15 0 -15 2 2 9 19 9 19 9 -2 16 -27 7 -32 26
-5 19 9 -3 6 0 -8 7 -14 7 -40 23 -57 35 -29 22 -31 22 -47 4z"/>
<path d="M3500 2376 c0 -2 6 -9 14 -15 10 -9 15 -8 20 4 4 10 -1 15 -14 15
-11 0 -20 -2 -20 -4z"/>
<path d="M2110 2305 c47 -61 271 -215 312 -215 7 0 -5 9 -27 19 -22 11 -66 41
-98 68 -32 26 -73 58 -90 70 -18 13 -38 27 -44 33 -7 6 -13 7 -13 3 0 -4 -4
-3 -8 2 -4 6 -16 17 -27 25 -19 14 -19 14 -5 -5z"/>
<path d="M2185 2311 c-20 -4 -26 -9 -17 -14 14 -10 52 0 52 14 0 5 -1 8 -2 8
-2 -1 -16 -4 -33 -8z"/>
<path d="M565 2250 c-3 -5 -35 -10 -70 -10 -35 0 -70 -3 -79 -6 -25 -10 -21
-66 6 -83 16 -10 23 -10 26 -2 2 6 7 9 12 6 5 -3 21 0 37 6 47 18 134 12 167
-13 26 -19 33 -20 60 -9 17 7 46 17 64 22 18 6 30 14 27 20 -12 19 -75 38
-108 32 -35 -5 -107 19 -107 36 0 14 -27 14 -35 1z"/>
<path d="M2315 1840 c-3 -5 -1 -10 4 -10 6 0 11 5 11 10 0 6 -2 10 -4 10 -3 0
-8 -4 -11 -10z"/>
<path d="M2381 1461 c-19 -12 -6 -57 19 -64 20 -5 50 15 50 33 0 13 -30 40
-43 40 -7 0 -18 -4 -26 -9z"/>
<path d="M3080 1240 c0 -5 5 -10 10 -10 6 0 10 5 10 10 0 6 -4 10 -10 10 -5 0
-10 -4 -10 -10z"/>
<path d="M3079 1158 c8 -23 31 -37 31 -19 0 6 -4 11 -10 11 -5 0 -10 7 -10 15
0 8 -4 15 -10 15 -5 0 -6 -9 -1 -22z"/>
<path d="M2725 897 c-11 -11 -15 -17 -9 -14 7 4 15 0 18 -9 4 -9 11 -12 18 -7
7 4 16 8 20 8 18 0 16 14 -4 27 -21 14 -25 13 -43 -5z"/>
<path d="M340 885 c0 -8 9 -15 20 -15 11 0 20 7 20 15 0 8 -9 15 -20 15 -11 0
-20 -7 -20 -15z"/>
<path d="M2287 766 c-9 -22 22 -58 46 -54 26 4 36 46 15 59 -20 13 -55 11 -61
-5z"/>
</g>
</svg>
